HIERARCHY
ROOT Hips
{
	OFFSET 0.000000 88.474243 0.000000
	CHANNELS 6 Xposition Yposition Zposition Zrotation Yrotation Xrotation 
	JOINT Hips_Spine
	{
		OFFSET 0.000000 0.000000 0.000000
		CHANNELS 3 Zrotation Yrotation Xrotation
		JOINT Spine
		{
			OFFSET 0.005100 8.711998 -0.691000
			CHANNELS 3 Zrotation Yrotation Xrotation
			JOINT Spine1
			{
				OFFSET -0.009200 8.660301 -1.275000
				CHANNELS 3 Zrotation Yrotation Xrotation
				JOINT Spine2
				{
					OFFSET 0.006300 9.852501 -1.857000
					CHANNELS 3 Zrotation Yrotation Xrotation
					JOINT Spine2_Neck
					{
						OFFSET 0.000000 0.000000 0.000000
						CHANNELS 3 Zrotation Yrotation Xrotation
						JOINT Neck
						{
							OFFSET 0.016300 11.420799 -0.263300
							CHANNELS 3 Zrotation Yrotation Xrotation
							End Site #name: Head
							{
								OFFSET -0.019200 9.262405 2.362500
							}
						}
					}
					JOINT Spine2_LeftShoulder
					{
						OFFSET 0.000000 0.000000 0.000000
						CHANNELS 3 Zrotation Yrotation Xrotation
						JOINT LeftShoulder
						{
							OFFSET 5.616900 6.732201 -0.345700
							CHANNELS 3 Zrotation Yrotation Xrotation
							JOINT LeftArm
							{
								OFFSET 10.664888 -0.183372 -2.440700
								CHANNELS 3 Zrotation Yrotation Xrotation
								JOINT LeftForeArm
								{
									OFFSET 27.459126 0.000000 0.000000
									CHANNELS 3 Zrotation Yrotation Xrotation
									End Site #name: LeftHand
									{
										OFFSET 21.306858 0.000000 0.000000
									}
								}
							}
						}
					}
					JOINT Spine2_RightShoulder
					{
						OFFSET 0.000000 0.000000 0.000000
						CHANNELS 3 Zrotation Yrotation Xrotation
						JOINT RightShoulder
						{
							OFFSET -5.580300 6.737503 -0.344400
							CHANNELS 3 Zrotation Yrotation Xrotation
							JOINT RightArm
							{
								OFFSET -10.679335 -0.188484 -2.383900
								CHANNELS 3 Zrotation Yrotation Xrotation
								JOINT RightForeArm
								{
									OFFSET -27.503529 0.000000 0.000000
									CHANNELS 3 Zrotation Yrotation Xrotation
									End Site #name: RightHand
									{
										OFFSET -21.306808 0.000000 0.000000
									}
								}
							}
						}
					}
				}
			}
		}
	}
	JOINT Hips_LeftUpLeg
	{
		OFFSET 0.000000 0.000000 0.000000
		CHANNELS 3 Zrotation Yrotation Xrotation
		JOINT LeftUpLeg
		{
			OFFSET 6.857700 -6.739601 0.312100
			CHANNELS 3 Zrotation Yrotation Xrotation
			JOINT LeftLeg
			{
				OFFSET -0.367590 -34.731552 -4.572400
				CHANNELS 3 Zrotation Yrotation Xrotation
				End Site #name: LeftFoot
				{
					OFFSET 0.367590 -34.656704 -6.067400
				}
			}
		}
	}
	JOINT Hips_RightUpLeg
	{
		OFFSET 0.000000 0.000000 0.000000
		CHANNELS 3 Zrotation Yrotation Xrotation
		JOINT RightUpLeg
		{
			OFFSET -6.876100 -6.733299 0.301000
			CHANNELS 3 Zrotation Yrotation Xrotation
			JOINT RightLeg
			{
				OFFSET 0.347353 -34.795158 -4.515900
				CHANNELS 3 Zrotation Yrotation Xrotation
				End Site #name: RightFoot
				{
					OFFSET -0.347353 -34.589367 -6.070300
				}
			}
		}
	}
}
MOTION
Frames: 9
Frame Time: 0.041667
0.014580 0.010507 -0.034398 0.050833 3.652875 -21.324230 0.000000 -0.000000 0.000000 -0.282264 1.527812 3.219310 0.058258 1.640727 14.778869 0.000000 0.000000 0.000000 0.028567 2.099058 16.381468 -0.422364 -3.965512 10.636694 0.157978 2.834872 14.668596 -11.838651 4.683594 -1.029927 -37.286324 -17.713579 24.883802 3.937943 -68.060062 -1.387142 1.039189 2.737916 15.082264 26.826064 9.088886 4.498341 42.135616 49.419582 34.595207 -20.371643 80.841665 -29.199777 0.000000 -0.000000 0.000000 0.340513 15.422440 -87.818296 2.412541 0.869937 97.834463 0.000000 -0.000000 0.000000 -4.219209 -14.317913 -86.265615 -0.179295 -1.780459 87.183234 
0.038975 0.022828 0.070799 0.721905 2.866724 -21.356166 -0.000000 -0.000000 0.000000 0.387446 1.310064 6.534189 0.340613 2.441509 15.814571 0.000000 0.000000 0.000000 -0.162904 2.185148 14.713009 -3.289336 -4.277624 13.125573 0.382443 2.602338 15.399617 -8.186604 1.982089 0.011627 -52.870634 -16.632545 24.023234 1.109320 -72.141797 -1.073948 0.632323 2.038928 16.476860 23.934350 8.467845 4.161982 29.550432 39.820069 7.061605 -6.628047 80.541267 -18.350050 -0.000000 -0.000000 -0.000000 1.198961 15.950495 -86.260056 0.479734 2.685128 97.658289 0.000000 -0.000000 -0.000000 -7.091606 -10.950702 -85.059672 1.315969 -1.672389 88.447228 
0.024308 0.039579 0.060584 0.671704 3.575846 -21.586083 -0.000000 -0.000000 0.000000 0.159793 1.087880 7.871159 0.287569 2.368448 15.895001 0.000000 0.000000 0.000000 -0.101112 1.997262 14.723494 -3.450728 -5.575472 13.188038 0.080413 2.440375 15.334377 -8.555935 2.830651 0.245324 -54.399378 -19.129212 21.404420 3.640259 -76.765457 -4.012225 0.270160 2.129256 16.017307 22.095989 10.140602 4.494133 31.505574 39.575807 -3.612577 -7.943108 76.330348 -18.298844 -0.000000 -0.000000 -0.000000 1.062941 15.627471 -85.993914 -0.191904 3.092639 97.758245 0.000000 -0.000000 -0.000000 -8.337430 -10.489133 -85.539703 1.781552 -1.877106 87.960463 
0.009821 0.040996 0.031360 1.027693 3.530411 -21.306948 -0.000000 -0.000000 0.000000 -0.071704 1.017836 7.599657 0.076427 2.654590 15.502136 0.000000 0.000000 0.000000 -0.325659 2.534594 14.437100 -3.517682 -5.734774 13.010735 0.045071 2.598472 14.579315 -8.613801 3.987463 0.037206 -55.932755 -19.775177 25.798904 3.445228 -74.943161 -4.064446 0.223922 2.684548 14.963567 21.503399 9.979601 4.320612 27.611922 38.451463 -11.649944 -17.102559 79.574822 -27.577662 -0.000000 -0.000000 -0.000000 1.103449 15.109137 -85.778375 -0.336747 3.026961 97.844631 0.000000 -0.000000 -0.000000 -8.413909 -10.871590 -86.198783 1.736979 -1.912464 88.026225 
0.011171 0.030658 0.001071 1.224841 3.397680 -21.033596 -0.000000 -0.000000 0.000000 0.003572 1.005532 7.295485 -0.046573 2.932540 15.128449 0.000000 0.000000 0.000000 -0.437016 2.913374 14.317894 -3.567185 -5.491554 12.910694 -0.142347 2.794338 14.037130 -8.488258 4.038133 0.039844 -56.768333 -19.316820 30.346572 3.699462 -74.901076 -4.608012 0.183745 3.032138 14.375333 21.808948 9.649904 4.213325 24.803298 37.505908 -16.810812 -19.440967 79.480827 -31.101808 -0.000000 -0.000000 -0.000000 1.263761 14.821860 -85.636825 -0.378387 2.941686 97.812964 0.000000 -0.000000 -0.000000 -8.306701 -10.893918 -86.572785 1.459033 -2.099540 88.000341 
0.023612 0.014583 -0.021256 1.358498 3.227038 -20.904829 -0.000000 -0.000000 0.000000 0.197747 1.001427 7.215243 -0.054199 3.025776 14.795061 0.000000 0.000000 0.000000 -0.359175 3.053543 14.193907 -3.297757 -5.171133 12.649609 -0.187544 2.911303 13.694807 -7.966336 3.678477 0.136216 -57.413860 -17.033727 33.784902 5.069725 -76.473557 -6.022570 0.220783 3.124035 14.008003 21.841233 9.425041 4.091924 23.434539 36.552575 -19.358105 -14.658946 76.653329 -27.045681 -0.000000 -0.000000 -0.000000 1.281774 14.761651 -85.624458 -0.351457 2.871095 97.685946 0.000000 -0.000000 -0.000000 -8.296752 -10.850927 -86.676768 1.485859 -2.125396 87.817403 
0.040300 -0.003325 -0.038740 1.420116 3.142567 -20.863964 -0.000000 -0.000000 0.000000 0.361302 1.024290 7.171332 0.056812 3.083111 14.549908 0.000000 0.000000 0.000000 -0.220546 3.115449 14.033941 -2.986480 -4.940482 12.238703 -0.111774 2.990900 13.503364 -7.557375 3.422662 0.190956 -57.916400 -15.863419 34.755990 6.795552 -77.877317 -7.457126 0.315509 3.188834 13.776854 21.782843 9.297944 4.024224 22.117331 36.699334 -21.112616 -10.615802 73.358463 -23.372240 -0.000000 -0.000000 -0.000000 1.278770 14.735890 -85.634974 -0.348232 2.843222 97.614492 0.000000 -0.000000 -0.000000 -8.319903 -10.867978 -86.723528 1.509632 -2.136896 87.683148 
0.057478 -0.022062 -0.054285 1.440240 3.129176 -20.855245 -0.000000 -0.000000 0.000000 0.424791 1.060775 7.143633 0.152177 3.151708 14.412041 0.000000 0.000000 0.000000 -0.136501 3.163099 13.936419 -2.762020 -4.813105 11.982798 -0.028369 3.055787 13.473622 -7.420888 3.182725 0.221455 -57.938367 -15.934110 34.278165 7.310704 -78.083097 -7.858965 0.381712 3.247126 13.699043 21.653936 9.294874 3.983887 20.840202 37.445520 -22.748178 -7.647312 70.189145 -20.572827 -0.000000 -0.000000 -0.000000 1.246125 14.708892 -85.682427 -0.344277 2.831683 97.615390 0.000000 -0.000000 -0.000000 -8.338576 -10.892656 -86.740285 1.517335 -2.137757 87.661382 
0.070485 -0.041198 -0.069930 1.437968 3.126002 -20.840312 -0.000000 -0.000000 0.000000 0.433302 1.093215 7.157760 0.178040 3.205978 14.395799 0.000000 0.000000 0.000000 -0.103982 3.196450 13.968555 -2.665627 -4.782137 11.938884 0.026516 3.115705 13.558949 -7.477209 3.083947 0.230939 -57.441717 -16.660460 33.146788 6.866631 -77.432143 -7.410252 0.409234 3.303269 13.768947 21.615491 9.406523 3.990555 19.481917 38.279488 -24.229715 -6.107782 67.992539 -19.007676 -0.000000 -0.000000 -0.000000 1.201213 14.715895 -85.763010 -0.340394 2.829203 97.657349 0.000000 -0.000000 -0.000000 -8.328123 -10.924428 -86.807290 1.511738 -2.138007 87.644684 
